<svg class="file-icon" width="64px" height="64px" xmlns="http://www.w3.org/2000/svg" viewBox="0 0 512 512">
  <path d="M24.55,80a26.93,26.93,0,0,1,12.2-8.71A24.4,24.4,0,0,1,44.57,70c35.83,0,71.66.1,107.49-.06,8.54,0,14.79,3.67,19.89,10,4.64,5.76,8.23,12.28,13,18s10.62,9.1,18.28,9.1q132.61,0,265.23,0c8.25,0,15,3,20.26,9.4a5.34,5.34,0,0,0,.75.65c3.56,3.65,5,8.21,5.24,13.13.24,5.73.08,11.47,0,17.21,0,1,.09,2-.86,2.73-1.15-.41-1.21-1.5-1.51-2.42-3.53-10.9-12.32-17.36-23.86-17.37q-55.87,0-111.74,0-155,0-310,0c-7.71,0-14.4,2.31-19.73,8.05a24.52,24.52,0,0,0-5.27,9c-.35,1-.34,2.4-1.78,2.76-.93-.94-.78-2.15-.78-3.3,0-17.63-.08-35.26,0-52.89A19.41,19.41,0,0,1,24.55,80Z"
    style="fill: #94ddfe" />
  <path d="M494,150c0-6.74.16-13.48,0-20.21a23.22,23.22,0,0,0-3.72-11.23c-.29-.49-.52-1-.78-1.53,3.33,1.73,4.86,5,6.26,8.08a33.55,33.55,0,0,1,2.8,13.8q0,145.5,0,291c0,8.52-3.16,15.57-11.3,19.51a22,22,0,0,1-9.66,2.06q-220.5.06-441,0c-10.68,0-19-5.95-20.6-17.6a40.67,40.67,0,0,1-.4-5.44q0-163.25,0-326.5c0-7.48,1.84-14.44,6.87-20.3A5.46,5.46,0,0,1,24.55,80c-1.87,3.51-3.83,7-4.32,11A14.55,14.55,0,0,0,20,92.79q0,28.6,0,57.2a3.51,3.51,0,0,1,.75,2.57c.05,1.08,0,2.17,0,3.25q0,125.07,0,250.14a32.93,32.93,0,0,1-.07,3.74c0,4.13.09,8.27,0,12.4-.1,4.57,0,9.08,1.66,13.42.7,4.08,3.52,6.48,6.82,8.39a15.84,15.84,0,0,0,7.22,1.77c1.08.06,2.17,0,3.25,0H474.31a24.43,24.43,0,0,0,7.92-.81c4.66-1.57,8.22-4.3,9.36-9.4,2.49-6.08,1.46-12.47,1.61-18.75.08-3.32.06-6.65,0-10q-.07-55.62,0-111.23,0-70.36,0-140.72C493.2,153.19,492.79,151.45,494,150Z"
    style="fill: #e2e2e2" />
  <path d="M20.07,410q0-30.22-.07-60.44,0-98,0-196.07c0-1.17,0-2.33.06-3.5,1.56-4.94,3.5-9.59,7.42-13.28a25.16,25.16,0,0,1,17.76-7.19q112-.06,224,0,99.62,0,199.23,0c11.83,0,22.29,7.13,25.09,19.64a4.08,4.08,0,0,0,.43.87q0,34.84.06,69.69,0,91.55,0,183.1c0,1.41-.05,2.83-.08,4.24-.51,1.14-1.54,1.42-2.63,1.64a52.77,52.77,0,0,1-6.71.55c-6,.44-12.07-.43-18.1.15a45.18,45.18,0,0,1-8.07.47c-4.27-.41-8.5.41-12.59-.05a33,33,0,0,0-11.32.6,6.49,6.49,0,0,1-4-.13c-4-1.69-8.17-.83-12.28-.73-.5,0-1.06.24-1.49,0-5.56-2.6-11.38.74-17-.77a5.28,5.28,0,0,0-2.46.35c-.65.15-1.36.53-1.95.36-4.56-1.33-9.22.7-13.78-.5a6.81,6.81,0,0,0-4.86.52,5.7,5.7,0,0,1-5.29-.07,2.83,2.83,0,0,0-2.64-.3c-3,1.63-6,.77-9,.2a4.47,4.47,0,0,0-3.51.59c-1.91,1.18-4.23,1-6.3.73-2.79-.42-5.6-.67-8.38-1.23s-5.78.21-8.66.49c-.56.05-1.18.58-1.68.27-3.41-2.13-7.19.08-10.58-.88s-6.33.29-9.45.26c-6.72-.06-13.43,0-20.14.1-3.88,0-7.75-.15-11.63.25-1.86.19-3.52-.94-5.29-1.34-1.07-.25-2.25-.89-2.56,1.11-.17,1.07-1.47,1.07-2.33.9-2.68-.51-5.53,0-8.09-1.28a2.38,2.38,0,0,0-1.72-.17c-3.16,1-6.38.57-9.59.55-.5,0-1,.18-1.42-.22-1.11-1.14-2.52-.95-3.76-.6a19.47,19.47,0,0,1-6.18.38,59.82,59.82,0,0,0-8.48.31,49.17,49.17,0,0,1-10.88-.44,12.56,12.56,0,0,0-2.73-.06c-5.77.54-11.6.07-17.35,1a3.53,3.53,0,0,1-2.45-.26c-3.14-2-6.14-1.23-9.14.31a6.91,6.91,0,0,1-4.65.38c-4.8-1-9.7-1-14.54-1.26-1.93-.11-4,1.58-5.72-.64-.13-.16-.63.07-1,.15a17.89,17.89,0,0,1-7.44.15,11.7,11.7,0,0,0-5.21.14c-2.79.84-5.58.5-8.42.41-4.6-.14-9.12-.84-13.86.18-3.79.81-8-.88-12,.45-3.91-2.13-7.77,0-11.63.23a25,25,0,0,1-6.45-.28,33.72,33.72,0,0,0-10.89-.66c-4,.54-7.65-1.33-11.61-.71-3.07.48-6.28-.22-9.4.75a8.08,8.08,0,0,1-5.41-.08,8.54,8.54,0,0,0-3.47-.14q-9.84.26-19.68.49a22.65,22.65,0,0,1-7.92-.72,4.76,4.76,0,0,0-4.64,1.14C22.41,411,21.2,411.36,20.07,410Z"
    style="fill: #76d0f9" />
  <path d="M20.07,410c1.23.45,2.31.64,3.33-.6a4.22,4.22,0,0,1,5-1.14c3.09,1.17,6.26.45,9.38.73,3.78.34,7.5-1.13,11.3-.12,1.32.35,2.76-.31,4.16-.44,3.4-.32,6.74.93,10,.47a64.4,64.4,0,0,1,8.83-1c2.06,0,4.15,1,6.25-.34.79-.48,1.81.53,2.64,1.1,1,.71,2.06,1.17,3.08,0a1.27,1.27,0,0,1,1.31-.57c4.67,1.44,9.58.79,14.35,1.57a13.21,13.21,0,0,0,8.23-.92,3.73,3.73,0,0,1,4.18,0,5.12,5.12,0,0,0,5,.25,9.24,9.24,0,0,1,6.34,0c.86.24,1.71.85,2.65.43,5.17-2.29,10.42-.68,15.65-.42,2.23.11,4.48.36,6.67-.49a11,11,0,0,1,5.9-.23,14.61,14.61,0,0,0,8.09-.47c.92-.37,2.07-1.24,1.6.91a1.18,1.18,0,0,0,2.3.43c.36-1.78,1.31-1.29,2.35-.72a3.22,3.22,0,0,0,2.12.62c4.39-.85,8.59.63,12.89,1,1.64.14,3.33.27,4.59-1.27s2.89.07,4.23-.65c1.49-.8,2.45-.07,3.73.81,1.83,1.27,4.13.77,6.14.11a7.45,7.45,0,0,1,3.66-.42c3.73.67,7.39-.21,11.08-.37a4,4,0,0,1,1.46,0c3.39,1.31,7,.75,10.39.73,4.21,0,8.38-.51,12.63-.09,1.71.17,3.62-.8,5.55-.88,1.25-.05,2.49-.79,1,2.38,2-1.89,3.29-1.93,4.66-1.24,2.39,1.2,4.45-.93,6.77-.7.53.05,1.14-.31,1.65.09,2.54,2,5.67.61,8.42,1.52.77.26,2.47.36.95-1.41-.68-.79.13-.92.67-1a7.39,7.39,0,0,1,4.35.82c2.45,1.18,5,.95,7.5.49,2.24-.41,4.44-.74,6.57.3.81.39,1.45-.1,2.17-.12,4.16-.14,8.34-.18,12.48-.27,3.82-.08,8,1.5,11.65-1a2,2,0,0,1,1.44-.16,20.38,20.38,0,0,0,10.52.48c.32-.07.76-.2,1,0,3.49,2.43,7.16.46,10.73.45,3,0,5.81,1.14,8.84,1.2s6,1.29,8.46-1.36c.46-.48,1.06-.18,1.64,0,3.42.81,6.85,2.1,10.29,0a2.2,2.2,0,0,1,2.54.36,4.44,4.44,0,0,0,5.12.14c3-1.76,6.17-.13,9.26,0a6.18,6.18,0,0,0,3.13-.25,4.14,4.14,0,0,1,4.48.14,1.74,1.74,0,0,0,1.67.28c3.3-1.57,6.7-.41,10.06-.45a6.18,6.18,0,0,0,2.23-.1c3-1.28,5.65-.59,8.62.37,2.09.68,4.69.13,7-.29a6.9,6.9,0,0,1,4.09.12,15.09,15.09,0,0,0,10.86.31,9.22,9.22,0,0,1,6.82.21c1.87.86,3.73-.17,5.58-.37,2.09-.23,4.1-.54,6.09.45a2.31,2.31,0,0,0,1.68.27c4.5-2.07,9.4.24,14-1.31,1.05-.36,2.42.27,3.66.35a95.94,95.94,0,0,0,15.13-.45,8.45,8.45,0,0,0,3-1c0,7.3.08,14.59.08,21.89a14.29,14.29,0,0,1-2,6.59c-1.2,2.89-3,5-6.38,5.4a29.6,29.6,0,0,1-7.92.83q-221.06,0-442.12,0a26.19,26.19,0,0,1-6.21-.41A8.68,8.68,0,0,1,22,435.5a17.88,17.88,0,0,1-2-8.84C20.1,421.11,20,415.56,20.07,410Z"
    style="fill: #6bc3eb" />
  <path d="M22,435.5c1.9,2.16,3.65,4.51,6.58,5.42,3.53.8,7.12.58,10.69.58q215,0,429.93,0c5.77,0,11.61.71,17.29-1.05,2.5-.92,3.87-3.1,5.57-4.92.92.8.19,1.54-.15,2.23-2.79,5.73-7.61,8.3-13.77,8.77-.41,0-.83,0-1.25,0H37.14c-6.68,0-11.93-2.58-15-8.76C21.78,437,21.06,436.31,22,435.5Z"
    style="fill: #cacaca" />
  <path d="M486.45,440.42c-2.81,1.52-5.83,1.61-8.95,1.61q-221.34,0-442.67,0c-2.17,0-4.32,0-6.29-1.1,1.62-1,3.2.14,4.81.14Q132.7,440.94,232,441q123.59,0,247.17.07C481.69,441.06,484,439.94,486.45,440.42Z" style="fill: #54a7d1" />
</svg>
